# xmcd
#
# Track frame offsets: 
#        150
#        17383
#        32830
#        49873
#        71525
#        91410
#        109635
#        125678
#        147078
#        162055
#
# Disc length: 2395 seconds
#
# Revision: 30
# Processed by: cddbd v1.5.2PL0 Copyright (c) Steve Scherf et al.
# Submitted via: ExactAudioCopy v1.0b3
#
DISCID=7c09590a
DTITLE=ZZ Top - Recycler
DYEAR=1990
DGENRE=Rock
TTITLE0=Concrete And Steel
TTITLE1=Lovething
TTITLE2=Penthouse Eyes
TTITLE3=Tell It
TTITLE4=My Head's In Mississippi
TTITLE5=Decision Or Collision
TTITLE6=Give It Up
TTITLE7=2000 Blues
TTITLE8=Burger Man
TTITLE9=Doubleback
EXTD=
EXTT0=
EXTT1=
EXTT2=
EXTT3=
EXTT4=
EXTT5=
EXTT6=
EXTT7=
EXTT8=
EXTT9=
PLAYORDER=
